<svg width="350" height="391" viewBox="0 0 350 391" fill="none" xmlns="http://www.w3.org/2000/svg">
<g clip-path="url(#clip0_11_284)">
<path opacity="0.1" d="M170.299 391C195.277 391 215.526 387.498 215.526 383.179C215.526 378.859 195.277 375.357 170.299 375.357C145.321 375.357 125.072 378.859 125.072 383.179C125.072 387.498 145.321 391 170.299 391Z" fill="#5EA8FF"/>
<path opacity="0.1" d="M6.20087 169.037H53.3087V238.175H9.65007C9.53301 238.883 9.42157 239.599 9.3013 240.313H53.3087V296.073C53.2293 296.047 53.1595 296.017 53.0858 295.987C51.8406 295.456 50.6059 294.898 49.3712 294.297L48.5823 293.913C47.3451 293.283 46.1064 292.616 44.8701 291.914C44.4379 291.669 44.0066 291.413 43.5792 291.154C36.7081 287.009 30.4647 281.757 25.0688 275.58C24.9109 275.415 24.7618 275.24 24.6046 275.08C23.8526 274.2 23.1149 273.31 22.4006 272.402L21.61 271.401C20.7666 270.287 19.9496 269.142 19.1558 267.983C19.0396 267.813 18.9289 267.643 18.8078 267.482C15.5783 262.664 12.8996 257.445 10.8239 251.939C10.7589 251.774 10.7028 251.594 10.6419 251.439C10.0061 249.673 9.44081 247.89 8.94852 246.092C8.73525 245.337 8.5316 244.592 8.35522 243.808C8.28947 243.578 8.23415 243.353 8.18203 243.128C5.54583 232.047 5.23634 220.537 5.23634 209.106C5.23634 207.772 5.23634 206.432 5.23634 205.108C5.23634 200.484 5.28605 195.831 5.35981 191.184C5.35981 189.979 5.40632 188.778 5.43037 187.569C5.49531 184.5 5.58832 181.432 5.70858 178.363C5.73745 177.509 5.77433 176.659 5.81522 175.81C5.81522 175.32 5.83847 174.83 5.88578 174.339C5.99642 172.56 6.08942 170.796 6.20087 169.037Z" fill="#5EA8FF"/>
<path opacity="0.1" d="M53.3087 92.0572H27.4685C31.669 84.9775 36.2583 78.1749 41.2124 71.6855C45.0505 66.6082 49.1026 61.659 53.3087 56.8909V92.0572Z" fill="#5EA8FF"/>
<path opacity="0.1" d="M53.3087 94.1966V166.898H6.34918C6.34918 166.688 6.38125 166.472 6.39649 166.263C6.43738 165.688 6.47907 165.114 6.52557 164.544C6.57769 163.875 6.63221 163.2 6.69314 162.544C6.75247 161.89 6.81822 161.09 6.88797 160.365C6.95772 159.641 7.02186 158.906 7.10124 158.181C7.18061 157.457 7.25037 156.732 7.33375 156.013C7.41633 155.292 7.4909 154.563 7.57909 153.843C7.64885 153.244 7.72261 152.648 7.79637 152.049C7.90381 151.204 8.01605 150.354 8.13712 149.515C8.13712 149.389 8.16839 149.26 8.18683 149.14C9.0343 142.993 10.1896 136.9 11.6465 130.886C13.1698 124.58 15.1165 118.398 17.4713 112.394C19.972 106.112 22.9017 100.039 26.2338 94.2214L53.3087 94.1966Z" fill="#5EA8FF"/>
<path opacity="0.1" d="M165.17 169.032L64.5542 238.175H165.17V169.032ZM64.5542 240.309V299.686C65.1299 299.815 65.7 299.94 66.2668 300.045C67.0373 300.204 67.803 300.35 68.5879 300.474C68.7371 300.499 68.8902 300.526 69.0522 300.54C69.3584 300.595 69.6743 300.639 69.9806 300.686C70.7559 300.8 71.5256 300.896 72.3017 300.969C72.6673 301.009 73.0385 301.045 73.4106 301.076L74.3061 301.15C74.7944 301.19 75.2763 301.22 75.7541 301.234C76.0524 301.234 76.349 301.264 76.6553 301.275C76.8878 301.275 77.1195 301.275 77.3601 301.275C77.6022 301.275 77.9454 301.275 78.238 301.275C78.6373 301.275 79.0358 301.275 79.431 301.275H79.9642C80.3635 301.275 80.7628 301.275 81.1564 301.234H81.1853C81.4587 301.234 81.7385 301.234 82.0167 301.194C82.0937 301.199 82.1707 301.199 82.2484 301.194C82.4801 301.194 82.7127 301.194 82.9347 301.16H83.0975L84.6521 301.029C85.1637 300.981 85.6792 300.916 86.1979 300.855L87.2571 300.72C91.561 300.071 95.8191 299.095 99.9979 297.802C109.383 294.981 118.563 291.039 127.944 288.15C140.073 284.426 153.472 282.597 165.193 287.15V240.309H64.5542ZM165.17 92.0572V0.00809608C154.154 -0.120058 143.168 1.26801 132.48 4.13626C107.001 11.0294 84.1414 25.9785 64.5542 45.0711V92.0516H69.6038V94.1862H64.5542V166.898H165.17V94.1918H90.3383V92.0572H165.17ZM294.404 60.9646C288.1 60.7251 281.835 58.5761 276.168 55.2578C265.329 48.9093 256.673 39.1079 246.999 30.8364C226.902 13.6077 201.977 3.21195 176.407 0.633649V92.0572H320.04L320.396 91.6527L294.404 60.9646ZM307.49 58.4656L321.362 74.8589V54.1676C316.715 54.7868 312.646 56.2614 307.508 58.4456L307.49 58.4656ZM321.362 314.429V240.309H291.801C291.721 239.994 291.643 239.674 291.549 239.354C291.637 239.674 291.712 239.994 291.796 240.309H176.426V293.913C177.521 294.788 178.602 295.707 179.674 296.642C180.831 297.641 181.972 298.696 183.118 299.73L184.275 300.761C184.826 301.259 185.384 301.76 185.945 302.229C187.059 303.202 188.184 304.163 189.32 305.109C189.881 305.608 190.457 306.058 191.027 306.528C200.091 313.99 209.652 320.724 219.634 326.675C221.871 328.008 224.127 329.309 226.404 330.579C227.924 331.412 229.45 332.242 230.982 333.047C233.284 334.257 235.605 335.423 237.944 336.547C259.511 346.971 282.319 354.125 305.71 357.803C310.906 358.628 316.122 359.278 321.358 359.751V314.424H321.823L321.362 314.429ZM176.426 94.1918V166.898H321.381V94.1918H176.426ZM176.426 169.032V238.175H321.381V169.032H176.426Z" fill="#5EA8FF"/>
<path opacity="0.1" d="M53.3087 130.866V166.898H6.34918C6.34918 166.688 6.38125 166.472 6.39649 166.263C6.43738 165.688 6.47907 165.114 6.52557 164.544C6.57769 163.875 6.63221 163.2 6.69314 162.544C6.75247 161.89 6.81822 161.09 6.88797 160.365C6.95772 159.641 7.02186 158.906 7.10124 158.181C7.18061 157.457 7.25037 156.732 7.33375 156.013C7.41633 155.292 7.4909 154.563 7.57909 153.843C7.64885 153.244 7.72261 152.648 7.79637 152.049C7.90381 151.204 8.01605 150.354 8.13712 149.515C8.13712 149.389 8.16839 149.26 8.18683 149.14C9.0343 142.993 10.1896 136.9 11.6465 130.886L53.3087 130.866Z" fill="#5EA8FF"/>
<path opacity="0.1" d="M6.20087 169.037H53.3087V238.175H9.65007C9.53301 238.883 9.42157 239.599 9.3013 240.313H53.3087V296.073C53.2293 296.047 53.1595 296.017 53.0858 295.987C51.8406 295.456 50.6059 294.898 49.3712 294.297L48.5823 293.913C47.3451 293.283 46.1064 292.616 44.8701 291.914C44.4379 291.669 44.0066 291.413 43.5792 291.154C36.7081 287.009 30.4647 281.757 25.0688 275.58C24.9109 275.415 24.7618 275.24 24.6046 275.08C23.8526 274.2 23.1149 273.31 22.4006 272.402L21.61 271.401C20.7666 270.287 19.9496 269.142 19.1558 267.983C19.0396 267.813 18.9289 267.643 18.8078 267.482C15.5783 262.664 12.8996 257.445 10.8239 251.939C10.7589 251.774 10.7028 251.594 10.6419 251.439C10.0061 249.673 9.44081 247.89 8.94852 246.092C8.73525 245.337 8.5316 244.592 8.35522 243.808C8.28947 243.578 8.23415 243.353 8.18203 243.128C5.54583 232.047 5.23634 220.537 5.23634 209.106C5.23634 207.772 5.23634 206.432 5.23634 205.108C5.23634 200.484 5.28605 195.831 5.35981 191.184C5.35981 189.979 5.40632 188.778 5.43037 187.569C5.49531 184.5 5.58832 181.432 5.70858 178.363C5.73745 177.509 5.77433 176.659 5.81522 175.81C5.81522 175.32 5.83847 174.83 5.88578 174.339C5.99642 172.56 6.08942 170.796 6.20087 169.037Z" fill="#5EA8FF"/>
<path opacity="0.1" d="M99.9739 104.602V166.898H64.5542V104.602H69.6038V83.5101H90.3334V104.602H99.9739Z" fill="#5EA8FF"/>
<path opacity="0.1" d="M99.9747 169.032H64.5599V238.17H99.9747V169.032Z" fill="#5EA8FF"/>
<path opacity="0.1" d="M64.5542 240.313H99.9739V297.791C95.7959 299.083 91.5377 300.058 87.2338 300.704L86.1747 300.845C85.6551 300.91 85.1396 300.965 84.6289 301.019C84.1182 301.076 83.5898 301.114 83.0743 301.15H82.9123C82.6886 301.15 82.4481 301.179 82.2292 301.185H81.9927C81.7153 301.185 81.4354 301.214 81.1564 301.225C80.7628 301.25 80.3683 301.254 79.9642 301.259C79.7926 301.259 79.6307 301.259 79.4583 301.259C79.059 301.259 78.6645 301.259 78.2653 301.259H77.3881C77.1516 301.259 76.9247 301.259 76.6778 301.259L75.7822 301.225C75.3188 301.225 74.8169 301.17 74.335 301.135L73.4434 301.065L72.3338 300.954C71.5545 300.879 70.7792 300.785 70.0135 300.671L69.085 300.53L68.62 300.461C67.8455 300.33 67.079 300.19 66.2989 300.03C65.7296 299.926 65.1628 299.796 64.5863 299.669L64.5542 240.313Z" fill="#5EA8FF"/>
<path opacity="0.1" d="M321.385 169.032V238.175H176.426V208.351H253.637V225.945H292.177V169.032H321.385Z" fill="#5EA8FF"/>
<path opacity="0.1" d="M321.845 314.446H321.381V359.802C316.151 359.325 310.937 358.677 305.739 357.857C282.334 354.168 259.518 346.999 237.944 336.555C231.715 333.536 225.613 330.242 219.638 326.671C209.656 320.717 200.094 313.982 191.027 306.522C188.749 304.644 186.501 302.721 184.283 300.755C182.747 299.391 181.221 297.991 179.673 296.632C178.602 295.697 177.521 294.776 176.426 293.898V240.313H291.791C291.712 239.994 291.633 239.674 291.549 239.359C291.637 239.674 291.721 239.994 291.801 240.313H321.381V314.414C321.537 314.42 321.692 314.435 321.845 314.446Z" fill="#5EA8FF"/>
<path opacity="0.1" d="M321.386 116.608H305.739V138.444H321.386V116.608Z" fill="#5EA8FF"/>
<path opacity="0.1" d="M321.386 161.869H305.739V166.898H321.386V161.869Z" fill="#5EA8FF"/>
<path opacity="0.1" d="M321.386 169.032H305.739V183.701H321.386V169.032Z" fill="#5EA8FF"/>
<path opacity="0.1" d="M321.386 207.132H305.739V228.968H321.386V207.132Z" fill="#5EA8FF"/>
<path opacity="0.1" d="M321.386 252.394H305.739V274.231H321.386V252.394Z" fill="#5EA8FF"/>
<path opacity="0.1" d="M321.381 314.414C321.537 314.414 321.692 314.414 321.845 314.446H321.381V319.517H305.739V297.656H321.381V314.414Z" fill="#5EA8FF"/>
<path opacity="0.1" d="M321.381 342.909V359.776C316.151 359.3 310.937 358.652 305.739 357.832V342.909H321.381Z" fill="#5EA8FF"/>
<path opacity="0.1" d="M243.482 236.569H176.426V238.174H243.482V236.569Z" fill="#5EA8FF"/>
<path opacity="0.1" d="M243.482 240.309H176.426V246.457H243.482V240.309Z" fill="#5EA8FF"/>
<path opacity="0.1" d="M243.482 266.608H176.426V276.494H243.482V266.608Z" fill="#5EA8FF"/>
<path opacity="0.1" d="M243.477 296.647V306.532H191.027C188.749 304.66 186.5 302.738 184.279 300.765C182.743 299.4 181.221 298.001 179.669 296.647H243.477Z" fill="#5EA8FF"/>
<path opacity="0.1" d="M243.477 326.68V336.555H237.939C231.716 333.532 225.616 330.237 219.638 326.665L243.477 326.68Z" fill="#5EA8FF"/>
<path opacity="0.1" d="M87.2651 109.505H74.064V123.719H87.2651V109.505Z" fill="#5EA8FF"/>
<path opacity="0.1" d="M87.2651 142.522H74.064V156.736H87.2651V142.522Z" fill="#5EA8FF"/>
<path opacity="0.1" d="M87.2651 175.539H74.064V189.753H87.2651V175.539Z" fill="#5EA8FF"/>
<path opacity="0.1" d="M87.2651 208.552H74.064V222.766H87.2651V208.552Z" fill="#5EA8FF"/>
<path opacity="0.1" d="M87.2651 241.569H74.064V255.783H87.2651V241.569Z" fill="#5EA8FF"/>
<path opacity="0.1" d="M87.2651 274.586H74.064V288.8H87.2651V274.586Z" fill="#5EA8FF"/>
<path opacity="0.1" d="M8.13232 149.131V157.262H53.3087V149.131H8.13232ZM12.6334 156.752H8.94852V149.63H12.6615L12.6334 156.752ZM17.1314 156.752H13.4184V149.63H17.1314V156.752ZM21.6196 156.752H17.9075V149.63H21.6196V156.752ZM26.1184 156.752H22.4094V149.63H26.1232L26.1184 156.752ZM30.6123 156.752H26.8977V149.63H30.6123V156.752ZM35.1078 156.752H31.3948V149.63H35.1078V156.752ZM39.6057 156.752H35.8935V149.63H39.6057V156.752ZM44.0996 156.752H40.3866V149.63H44.0996V156.752ZM48.5919 156.752H44.8789V149.63H48.5919V156.752ZM53.0858 156.752H49.3712V149.63H53.0858V156.752Z" fill="#5EA8FF"/>
<path opacity="0.1" d="M8.13232 172.79V180.923H53.3087V172.79H8.13232ZM12.6334 180.408H8.94852V173.305H12.6615L12.6334 180.408ZM17.1314 180.408H13.4184V173.305H17.1314V180.408ZM21.6196 180.408H17.9075V173.305H21.6196V180.408ZM26.1184 180.408H22.4094V173.305H26.1232L26.1184 180.408ZM30.6123 180.408H26.8977V173.305H30.6123V180.408ZM35.1078 180.408H31.3948V173.305H35.1078V180.408ZM39.6057 180.408H35.8935V173.305H39.6057V180.408ZM44.0996 180.408H40.3866V173.305H44.0996V180.408ZM48.5919 180.408H44.8789V173.305H48.5919V180.408ZM53.0858 180.408H49.3712V173.305H53.0858V180.408Z" fill="#5EA8FF"/>
<path opacity="0.1" d="M8.13232 196.461V204.608H53.3087V196.461H8.13232ZM12.6334 204.078H8.94852V196.971H12.6615L12.6334 204.078ZM17.1314 204.078H13.4184V196.971H17.1314V204.078ZM21.6196 204.078H17.9075V196.971H21.6196V204.078ZM26.1184 204.078H22.4094V196.971H26.1232L26.1184 204.078ZM30.6123 204.078H26.8977V196.971H30.6123V204.078ZM35.1078 204.078H31.3948V196.971H35.1078V204.078ZM39.6057 204.078H35.8935V196.971H39.6057V204.078ZM44.0996 204.078H40.3866V196.971H44.0996V204.078ZM48.5919 204.078H44.8789V196.971H48.5919V204.078ZM53.0858 204.078H49.3712V196.971H53.0858V204.078Z" fill="#5EA8FF"/>
<path opacity="0.1" d="M8.13232 220.131V228.253H53.3087V220.131H8.13232ZM12.6334 227.748H8.94852V220.637H12.6615L12.6334 227.748ZM17.1314 227.748H13.4184V220.637H17.1314V227.748ZM21.6196 227.748H17.9075V220.637H21.6196V227.748ZM26.1184 227.748H22.4094V220.637H26.1232L26.1184 227.748ZM30.6123 227.748H26.8977V220.637H30.6123V227.748ZM35.1078 227.748H31.3948V220.637H35.1078V227.748ZM39.6057 227.748H35.8935V220.637H39.6057V227.748ZM44.0996 227.748H40.3866V220.637H44.0996V227.748ZM48.5919 227.748H44.8789V220.637H48.5919V227.748ZM53.0858 227.748H49.3712V220.637H53.0858V227.748Z" fill="#5EA8FF"/>
<path opacity="0.1" d="M8.32634 243.797C8.50834 244.562 8.71199 245.327 8.92526 246.082V244.307H12.6382V251.414H10.6515C10.7124 251.58 10.7725 251.759 10.8335 251.914H53.3087V243.797H8.32634ZM17.1458 251.414H13.432V244.307H17.1458V251.414ZM21.6349 251.414H17.9211V244.307H21.6349V251.414ZM26.1328 251.414H22.4094V244.307H26.1232L26.1328 251.414ZM30.6243 251.414H26.9113V244.307H30.6243V251.414ZM35.1222 251.414H31.4092V244.307H35.1222V251.414ZM39.6209 251.414H35.9071V244.307H39.6209V251.414ZM44.114 251.414H40.3994V244.307H44.114V251.414ZM48.6055 251.414H44.8933V244.307H48.6055V251.414ZM53.0986 251.414H49.3856V244.307H53.0986V251.414Z" fill="#5EA8FF"/>
<path opacity="0.1" d="M18.8167 267.468C18.9329 267.628 19.0436 267.808 19.1646 267.968H21.6196V271.38C21.885 271.721 22.1456 272.061 22.4134 272.382V267.948H26.128V275.08H24.6231C24.7714 275.245 24.9165 275.42 25.0873 275.58H53.3207V267.468H18.8167ZM30.6123 275.08H26.8977V267.978H30.6123V275.08ZM35.1078 275.08H31.3948V267.978H35.1078V275.08ZM39.6057 275.08H35.8935V267.978H39.6057V275.08ZM44.0996 275.08H40.3866V267.978H44.0996V275.08ZM48.5919 275.08H44.8789V267.978H48.5919V275.08ZM53.0858 275.08H49.3712V267.978H53.0858V275.08Z" fill="#5EA8FF"/>
<path opacity="0.1" d="M43.5985 291.134C44.0202 291.394 44.4515 291.633 44.8869 291.894V291.643H48.6015V293.893L49.3896 294.287V291.643H53.1034V295.966C53.1748 296.004 53.2493 296.035 53.3271 296.056V291.134H43.5985Z" fill="#5EA8FF"/>
<path opacity="0.1" d="M291.549 239.354C291.637 239.674 291.712 239.994 291.796 240.309C291.721 239.994 291.643 239.674 291.549 239.354ZM69.623 92.0428V94.1766H90.3567V92.0428H69.623ZM291.549 239.354C291.637 239.674 291.712 239.994 291.796 240.309C291.721 239.994 291.643 239.674 291.549 239.354ZM291.549 239.354C291.637 239.674 291.712 239.994 291.796 240.309C291.721 239.994 291.643 239.674 291.549 239.354Z" fill="#5EA8FF"/>
<path d="M214.03 189.764C214.03 189.764 212.202 189.49 212.202 186.621C212.202 183.751 210.893 178.393 210.893 178.393C210.893 178.368 209.761 169.061 208.196 167.582C206.633 166.103 204.623 157.417 204.623 157.417C204.623 157.417 204.279 152.705 203.579 151.688C202.877 150.674 201.931 148.19 200.534 144.647C199.136 141.103 193.311 138.649 193.311 138.649C193.311 138.649 182.78 132.07 179.795 129.928C179.523 129.751 179.269 129.546 179.038 129.312C178.518 128.578 176.254 128.563 176.254 128.563C176.017 126.954 175.789 125.105 175.714 123.431C175.714 123.25 175.714 123.07 175.692 122.891C179.019 120.773 181.526 117.432 182.751 113.484C182.806 113.294 182.855 113.093 182.904 112.904C183.308 112.761 183.637 112.441 183.81 112.025C184.079 111.38 184.083 110.624 184.418 110.025C184.807 109.316 185.55 108.936 186.136 108.401C187.611 107.051 187.993 104.778 187.923 102.708C187.876 101.034 187.626 99.3444 187.722 97.68L187.75 97.2595C187.779 97.0096 187.811 96.7605 187.853 96.521C188.08 95.2803 188.576 94.1109 188.855 92.8814C189.134 91.6527 189.162 90.2679 188.511 89.209C187.56 87.6535 185.578 87.3443 183.837 87.1841C181.866 87.0031 180.102 87.2386 178.839 85.4749C178.248 84.5538 177.582 83.6879 176.852 82.891C176.592 82.6307 174.067 80.9711 174.067 80.8621C171.603 79.6335 168.81 79.402 166.2 80.2118C164.891 80.6227 163.657 81.2907 162.329 81.6263C159.465 82.3551 156.17 81.567 153.737 83.3307C152.382 84.3303 151.57 85.9202 150.808 87.4685C150.189 88.7452 149.561 90.0196 148.923 91.2915C147.898 93.3868 146.854 95.5166 146.423 97.8354C146.33 98.3408 146.275 98.851 146.255 99.3644V99.3892C146.255 99.5743 146.255 99.7593 146.255 99.9435V100.18C146.255 100.354 146.255 100.524 146.283 100.679C146.31 100.833 146.306 100.885 146.32 100.989C146.334 101.093 146.358 101.329 146.385 101.489C146.413 101.649 146.469 101.929 146.524 102.148C146.547 102.244 146.58 102.333 146.608 102.423C146.654 102.592 146.71 102.758 146.771 102.923C146.803 103.009 146.835 103.098 146.873 103.183C146.941 103.358 147.026 103.527 147.11 103.682C147.146 103.753 147.175 103.818 147.21 103.883C147.341 104.114 147.483 104.338 147.639 104.553C148.631 105.887 150.093 106.736 151.176 107.986C151.176 108.036 151.176 108.086 151.176 108.131C151.176 108.27 151.176 108.406 151.176 108.546C151.291 114.204 153.999 119.433 158.407 122.515C158.407 122.705 158.431 122.901 158.44 123.09C158.53 124.573 158.512 126.063 158.388 127.542C158.005 127.058 157.437 126.786 156.846 126.804C156.648 126.793 156.447 126.813 156.253 126.859L156.211 126.823V126.869C155.19 127.138 153.933 128.283 152.73 131.537C152.73 131.537 149.072 135.975 146.288 135.79C143.503 135.606 136.451 140.408 136.451 140.408C136.451 140.408 129.574 145.216 128.097 150.114C127.272 152.892 126.283 155.61 125.136 158.251L116.633 177.118L115.064 192.087C115.064 192.087 115.931 198.744 115.76 199.76C115.589 200.774 119.329 209.926 119.329 209.926C119.329 209.926 131.689 233.31 136.74 234.511L137.102 234.236C137.318 234.356 137.547 234.45 137.784 234.511L138.825 233.721C138.886 234.602 138.86 235.486 138.745 236.36C138.049 238.67 139.005 253.739 140.221 256.692C141.437 259.646 141.005 298.377 141.005 298.377L140.835 301.794C140.835 301.794 140.835 301.905 140.874 302.094L140.835 302.904L140.959 302.974C141.089 304.059 141.047 305.158 140.835 306.228C140.397 307.727 140.221 311.966 140.221 311.966C140.221 311.966 136.745 335.896 138.392 340.704C140.04 345.512 141.441 350.78 141.441 350.78C141.441 350.78 143.183 356.778 141.525 357.802C139.869 358.827 135.157 360.547 136.129 363.045C137.009 365.354 140.356 371.541 140.853 372.446L140.81 372.921L140.127 380.884C140.239 381.935 140.503 382.959 140.913 383.922C141.661 385.657 143.113 387.457 145.874 387.261C146.338 387.225 146.878 387.167 147.397 387.091C152.453 386.362 158.676 383.932 158.676 383.932C158.352 383.711 158.056 383.447 157.794 383.147C157.292 382.623 157.011 381.9 157.019 381.148C157.093 379.699 154.573 372.792 153.946 371.091C153.849 370.847 153.797 370.707 153.797 370.707C153.797 370.707 159.544 364.24 158.588 358.507C158.588 358.507 152.229 354.509 154.322 352.315C156.416 350.12 160.156 343.818 160.156 343.818C160.156 343.818 160.328 320.253 160.156 316.735C159.977 314.292 160.085 311.834 160.478 309.421C160.546 309.057 160.63 308.703 160.718 308.352C163.613 308.817 166.536 309.057 169.463 309.065C170.53 309.065 171.616 309.065 172.713 308.997C172.713 309.33 172.726 309.689 172.754 310.077C172.996 315.914 173.445 326.15 173.812 329.952C174.332 335.407 177.204 350.1 177.204 350.1C177.204 350.1 171.723 353.888 178.161 363.226C178.161 363.226 178.161 366.608 177.734 367.098C177.278 368.7 176.911 370.33 176.633 371.977C176.365 373.736 176.254 375.515 176.69 376.441C177.734 378.648 183.999 378.47 183.999 378.47L184.153 378.439C186.543 378.173 188.932 378.949 190.787 380.594C193.167 382.652 202.204 381.748 207.096 381.094C209.013 380.833 210.295 380.594 210.295 380.594C210.356 380.36 210.38 380.115 210.36 379.873C210.309 378.58 209.366 375.739 202.98 373.206C202.98 373.206 196.973 368.858 197.057 365.07H196.932H196.235C196.742 365.039 197.066 365.07 197.066 365.07C197.066 365.07 194.713 355.823 195.673 355.074C196.635 354.324 193.757 344.078 193.757 344.078C193.757 344.078 192.109 326.884 192.02 325.681C192.024 324.646 192.17 323.619 192.452 322.632L192.02 313.205C192.02 313.205 191.938 310.071 192.02 309.051C192.005 308.168 191.94 307.283 191.821 306.409C191.779 306.058 191.738 305.693 191.691 305.333C193.943 304.718 195.405 304.149 195.405 304.149L195.145 271.336C197.057 267.338 197.409 258.566 197.401 252.344C197.401 248.345 197.234 245.386 197.234 245.386L199.846 240.793C199.846 240.793 200.45 235.295 199.494 234.091C199.071 233.547 199.261 232.982 199.609 232.517C199.79 232.362 199.981 232.222 200.18 232.097C200.18 232.097 200.153 232.052 200.12 231.986C200.302 231.823 200.496 231.674 200.701 231.543C200.701 231.543 199.771 229.992 200.603 229.338C201.383 229.908 202.079 230.338 202.608 230.686C202.571 231.052 202.534 231.262 202.534 231.262L202.757 230.762C203.267 231.072 203.579 231.262 203.579 231.262C203.579 231.262 207.671 222.481 207.584 221.186C207.496 219.892 210.369 214.44 210.369 214.44C210.369 214.44 210.717 211.575 212.286 210.376C213.854 209.176 213.502 200.484 213.502 200.484C213.502 200.484 213.939 195.957 214.983 194.107C216.026 192.258 214.03 189.764 214.03 189.764ZM135.7 185.91L135.778 188.005C135.315 187.2 134.981 186.621 134.981 186.621L135.7 185.91Z" fill="url(#paint0_linear_11_284)"/>
<path d="M203.801 227.469L202.799 232.067C202.799 232.067 194.768 227.654 193.32 222.046C191.872 216.438 195.743 214.309 195.743 214.309L203.226 217.723L203.801 227.469Z" fill="white"/>
<path opacity="0.1" d="M203.801 227.469L202.799 232.067C202.799 232.067 194.768 227.654 193.32 222.046C191.872 216.438 195.743 214.309 195.743 214.309L203.226 217.723L203.801 227.469Z" fill="black"/>
<path d="M158.737 383.963C158.737 383.963 151.309 386.901 146.205 387.27C143.493 387.465 142.067 385.676 141.335 383.952C140.935 382.994 140.676 381.974 140.569 380.928L141.233 373.007L141.586 368.788L152.433 365.754L153.97 370.813L154.114 371.197C154.731 372.887 157.205 379.759 157.13 381.194C157.123 381.935 157.399 382.648 157.891 383.167C158.14 383.47 158.423 383.738 158.737 383.963Z" fill="white"/>
<path d="M209.463 379.934C209.482 380.173 209.46 380.416 209.398 380.648C209.398 380.648 193.516 383.502 190.266 380.648C188.413 378.962 185.987 378.197 183.583 378.539C183.583 378.539 177.437 378.719 176.412 376.54C175.985 375.626 176.095 373.85 176.361 372.101C176.63 370.462 176.989 368.842 177.437 367.248L177.683 367.038L179.145 365.774L196.264 365.23H196.394C196.309 368.998 202.204 373.322 202.204 373.322C208.465 375.82 209.389 378.644 209.463 379.934Z" fill="white"/>
<path opacity="0.1" d="M209.463 379.934C209.48 380.174 209.456 380.416 209.394 380.648C209.394 380.648 193.516 383.502 190.266 380.648C188.415 378.963 185.989 378.197 183.587 378.539C183.587 378.539 177.437 378.719 176.416 376.54C175.989 375.621 176.095 373.85 176.361 372.101C178.727 372.357 182.464 372.991 183.931 374.506C186.149 376.81 189.909 379.109 192.216 379.289C194.02 379.414 204.823 379.783 209.463 379.934Z" fill="black"/>
<path opacity="0.1" d="M158.737 383.963C158.737 383.963 151.309 386.901 146.205 387.27C143.493 387.465 142.067 385.676 141.339 383.946C143.229 384.631 145.851 385.352 147.23 384.692C148.864 383.911 154.656 383.407 157.906 383.193C158.152 383.484 158.431 383.742 158.737 383.963Z" fill="black"/>
<path d="M169.756 147.131C163.628 144.566 155.747 136.095 157.715 132.136C158.152 131.139 158.412 130.059 158.48 128.958C158.607 127.462 158.626 125.959 158.536 124.459C158.399 122.004 158.124 119.562 157.715 117.142C157.715 117.142 176.842 117.606 175.729 120.641C175.403 121.531 175.353 123.075 175.441 124.805C175.53 126.533 175.762 128.487 176.004 130.142C176.337 132.411 176.671 134.141 176.671 134.141C176.671 134.141 175.501 135.905 174.815 136C174.128 136.095 178.545 150.784 169.756 147.131Z" fill="#CF6F80"/>
<path opacity="0.1" d="M154.099 371.197L153.956 371.367C148.237 363.92 141.32 373.202 141.32 373.202L141.219 373.007L141.572 368.788L152.419 365.754L153.956 370.813L154.099 371.197Z" fill="black"/>
<path opacity="0.1" d="M196.397 365.754C196.397 365.754 192.22 365.659 189.993 367.778C187.765 369.898 176.996 368.239 177.461 367.778C177.598 367.551 177.68 367.29 177.702 367.018L179.164 365.754L196.282 365.211C196.347 365.545 196.397 365.754 196.397 365.754Z" fill="black"/>
<path d="M161.215 307.272C160.903 308.1 160.667 308.959 160.509 309.836C160.122 312.24 160.014 314.683 160.188 317.114C160.361 320.612 160.188 344.058 160.188 344.058C160.188 344.058 156.518 350.31 154.47 352.514C152.424 354.718 158.648 358.677 158.648 358.677C159.576 364.375 153.95 370.813 153.95 370.813C148.232 363.365 141.316 372.652 141.316 372.652C141.316 372.652 137.557 365.654 136.619 363.155C135.682 360.656 140.292 358.927 141.911 357.912C143.531 356.897 141.831 350.916 141.831 350.916C141.831 350.916 140.463 345.672 138.837 340.89C137.214 336.106 140.63 312.296 140.63 312.296C140.63 312.296 140.806 308.067 141.229 306.593C141.441 305.528 141.484 304.434 141.353 303.354C141.326 302.989 141.293 302.685 141.271 302.479C141.246 302.275 141.229 302.179 141.229 302.179L141.293 302.059L143.614 297.401C143.614 297.401 162.329 304.339 161.215 307.272Z" fill="#5EA8FF"/>
<path d="M196.397 365.205C196.397 365.205 192.22 365.109 189.993 367.204C187.765 369.298 176.996 367.664 177.461 367.204C177.925 366.744 177.887 363.34 177.887 363.34C171.571 354.054 176.959 350.285 176.959 350.285C176.959 350.285 174.136 335.665 173.626 330.243C173.268 326.454 172.828 316.274 172.592 310.462C172.489 307.963 172.43 306.242 172.43 306.242L177.591 305.123L178.254 304.979L190.703 302.289C190.703 302.289 191.047 304.788 191.279 306.832C191.394 307.705 191.459 308.585 191.473 309.467C191.389 310.467 191.473 313.596 191.473 313.596L191.896 322.976C191.619 323.96 191.477 324.981 191.473 326.01C191.557 327.205 193.177 344.307 193.177 344.307C193.177 344.307 195.994 354.514 195.033 355.248C194.072 355.983 196.397 365.205 196.397 365.205Z" fill="#5EA8FF"/>
<path opacity="0.1" d="M175.729 120.641C175.403 121.531 175.353 123.075 175.441 124.805C170.212 128.194 163.644 128.062 158.536 124.464C158.399 122.009 158.124 119.562 157.715 117.142C157.715 117.142 176.842 117.597 175.729 120.641Z" fill="black"/>
<path d="M183.123 109.595C183.126 111.396 182.863 113.186 182.343 114.898C178.549 127.415 163.594 130.813 155.426 121.016C152.896 117.984 151.458 114.078 151.365 110.005C151.365 109.865 151.365 109.734 151.365 109.595C151.156 96.4313 164.26 87.9603 174.952 94.3472C180.084 97.4133 183.228 103.276 183.128 109.595H183.123Z" fill="#CF6F80"/>
<path opacity="0.1" d="M169.756 147.131C163.628 144.566 155.747 136.095 157.715 132.136C158.152 131.139 158.412 130.059 158.48 128.958L166.868 136.379L172.057 140.962L176.004 130.146C176.337 132.416 176.671 134.146 176.671 134.146C176.671 134.146 175.501 135.91 174.815 136.005C174.128 136.101 178.545 150.784 169.756 147.131Z" fill="black"/>
<path d="M191.445 179.933L184.441 306.633L175.306 307.278L151.654 233.811L155.534 146.592L156.351 128.164L166.868 137.464L172.062 142.048L176.124 130.918L183.677 138.004L191.445 179.933Z" fill="#5EA8FF"/>
<path opacity="0.1" d="M161.215 307.272C160.903 308.1 160.667 308.959 160.509 309.836C153.861 308.731 147.406 306.56 141.359 303.394L141.233 303.324L141.275 302.52L141.299 302.099L143.619 297.441C143.619 297.441 162.329 304.339 161.215 307.272Z" fill="black"/>
<path opacity="0.1" d="M177.696 309.856C175.998 310.168 174.284 310.377 172.563 310.486C172.462 307.987 172.401 306.268 172.401 306.268L177.562 305.149L177.696 309.856Z" fill="black"/>
<path opacity="0.1" d="M191.249 306.857C187.95 307.782 182.855 308.821 178.291 308.171L178.226 305.003L190.675 302.314C190.675 302.314 191.018 304.787 191.249 306.857Z" fill="black"/>
<path opacity="0.1" d="M178.207 308.751C159.177 312.251 141.748 302.22 141.748 302.22L141.915 298.82C141.915 298.82 142.347 260.292 141.15 257.337C139.952 254.383 139.018 239.404 139.697 237.105C140.374 234.807 137.222 200.329 137.222 200.329L136.712 186.335L118.026 178.184L126.38 159.43C127.508 156.801 128.48 154.097 129.285 151.335C130.738 146.466 137.483 141.683 137.483 141.683C137.483 141.683 144.398 136.905 147.132 137.084C149.867 137.265 153.449 132.857 153.449 132.857C156.095 125.594 158.49 128.883 158.49 128.883C158.49 129.227 158.49 128.883 158.36 129.958C157.432 137.929 173.371 163.119 173.599 163.565L175.116 203.378L176.652 253.764L178.207 308.751Z" fill="black"/>
<path d="M177.696 308.751C158.666 312.251 141.233 302.22 141.233 302.22L141.404 298.82C141.404 298.82 141.837 260.292 140.634 257.337C139.431 254.383 138.504 239.404 139.187 237.105C139.869 234.807 136.712 200.329 136.712 200.329L136.197 186.335L117.5 178.153L125.855 159.401C126.981 156.769 127.951 154.066 128.761 151.304C130.209 146.437 136.958 141.653 136.958 141.653C136.958 141.653 143.874 136.874 146.603 137.055C149.332 137.234 152.922 132.827 152.922 132.827C155.57 125.565 158.49 128.853 158.49 128.853C158.49 129.198 158.211 129.352 158.36 129.928C160.403 137.659 172.861 163.089 173.088 163.534L174.625 203.348L176.16 253.733L177.696 308.751Z" fill="white"/>
<path opacity="0.1" d="M172.567 164.669C170.521 163.749 159.677 150.419 159.677 150.419V147.386C159.285 146.386 156.939 146.996 155.036 147.696L155.853 129.268L156.782 130.097C158.816 137.824 172.332 164.224 172.567 164.669Z" fill="black"/>
<path d="M173.084 163.565C171.031 162.644 160.188 149.315 160.188 149.315V146.28C159.795 145.281 157.45 145.89 155.548 146.592L156.369 128.162L157.297 128.993C159.335 136.72 172.857 163.125 173.084 163.565Z" fill="white"/>
<path opacity="0.1" d="M141.748 230.043C142.003 230.043 154.981 228.574 154.981 228.574C154.981 228.574 162.84 245.212 162.325 249.26C161.809 253.309 160.876 256.892 157.715 256.258C154.554 255.624 140.704 256.757 140.704 256.757L141.748 230.043Z" fill="black"/>
<path d="M141.233 228.937C141.489 228.937 154.467 227.469 154.467 227.469C154.467 227.469 162.319 244.113 161.809 248.156C161.298 252.199 160.357 255.788 157.2 255.153C154.044 254.518 140.188 255.653 140.188 255.653L141.233 228.937Z" fill="white"/>
<path d="M151.012 221.126C151.012 221.126 162.923 228.018 163.178 230.122C163.434 232.227 157.117 229.204 155.751 228.839C154.852 228.605 153.938 228.452 153.018 228.379L143.916 228.642L151.012 221.126Z" fill="#CF6F80"/>
<path opacity="0.1" d="M169.245 165.529C169.937 165.529 170.498 164.924 170.498 164.179C170.498 163.434 169.937 162.83 169.245 162.83C168.553 162.83 167.992 163.434 167.992 164.179C167.992 164.924 168.553 165.529 169.245 165.529Z" fill="black"/>
<path d="M169.245 164.979C169.937 164.979 170.498 164.375 170.498 163.629C170.498 162.884 169.937 162.28 169.245 162.28C168.553 162.28 167.992 162.884 167.992 163.629C167.992 164.375 168.553 164.979 169.245 164.979Z" fill="#3F3D56"/>
<path opacity="0.1" d="M171.552 223.945C172.244 223.945 172.805 223.341 172.805 222.596C172.805 221.851 172.244 221.246 171.552 221.246C170.86 221.246 170.298 221.851 170.298 222.596C170.298 223.341 170.86 223.945 171.552 223.945Z" fill="black"/>
<path d="M171.552 223.391C172.244 223.391 172.805 222.786 172.805 222.041C172.805 221.296 172.244 220.692 171.552 220.692C170.86 220.692 170.298 221.296 170.298 222.041C170.298 222.786 170.86 223.391 171.552 223.391Z" fill="#3F3D56"/>
<path opacity="0.1" d="M170.493 194.737C171.186 194.737 171.747 194.133 171.747 193.387C171.747 192.642 171.186 192.038 170.493 192.038C169.801 192.038 169.24 192.642 169.24 193.387C169.24 194.133 169.801 194.737 170.493 194.737Z" fill="black"/>
<path d="M170.493 194.187C171.186 194.187 171.747 193.583 171.747 192.838C171.747 192.092 171.186 191.488 170.493 191.488C169.801 191.488 169.24 192.092 169.24 192.838C169.24 193.583 169.801 194.187 170.493 194.187Z" fill="#3F3D56"/>
<path d="M199.383 228.099C199.383 228.099 200.236 229.479 199.383 230.122C198.528 230.767 199.466 232.327 199.466 232.327C199.466 232.327 197.335 233.671 198.274 234.881C199.211 236.09 198.616 241.553 198.616 241.553L196.054 246.121C196.054 246.121 196.208 249.065 196.216 253.044C196.216 259.251 195.878 267.978 194.003 271.957L194.263 304.598C194.263 304.598 185.29 308.127 177.781 307.053L176.667 254.674C176.667 254.674 178.291 224.969 178.889 219.272C179.24 216.315 179.382 213.332 179.316 210.35C179.316 210.35 179.062 201.434 178.203 197.297C178.203 197.297 177.274 179.368 177.182 174.405C177.14 172.03 177.257 165.104 177.386 158.516C177.53 151.314 177.692 144.521 177.692 144.521L175.998 130.088C175.998 130.088 177.692 129.903 178.203 130.636C178.432 130.866 178.68 131.074 178.945 131.252C181.87 133.381 192.202 139.928 192.202 139.928C192.202 139.928 197.92 142.379 199.289 145.886C200.659 149.394 201.61 151.884 202.275 152.883C202.938 153.883 203.3 158.581 203.3 158.581C203.3 158.581 205.267 167.227 206.805 168.693C208.341 170.157 209.463 179.472 209.463 179.472L195.888 190.968C195.888 190.968 194.695 210.09 194.439 210.831C194.184 211.571 199.383 228.099 199.383 228.099Z" fill="white"/>
<path d="M199.897 228.099C199.897 228.099 200.747 229.479 199.897 230.123C199.048 230.767 199.977 232.327 199.977 232.327C199.977 232.327 197.861 233.688 198.788 234.895C199.716 236.105 199.132 241.569 199.132 241.569L196.57 246.136C196.57 246.136 196.723 249.08 196.737 253.059C196.737 259.266 196.397 267.992 194.521 271.971L194.778 304.613C194.778 304.613 185.791 308.142 178.291 307.067L177.182 254.688C177.182 254.688 178.806 224.985 179.406 219.286C179.756 216.33 179.897 213.346 179.827 210.365C179.827 210.365 179.572 201.449 178.718 197.31C178.718 197.31 177.79 179.382 177.692 174.419C177.65 172.045 177.771 165.118 177.897 158.532C178.041 151.329 178.203 144.537 178.203 144.537L175.966 129.908C175.966 129.908 178.203 129.908 178.718 130.652C178.945 130.885 179.193 131.091 179.461 131.266C182.386 133.396 192.722 139.944 192.722 139.944C192.722 139.944 198.436 142.391 199.805 145.9C201.174 149.409 202.125 151.899 202.795 152.898C203.462 153.898 203.816 158.597 203.816 158.597C203.816 158.597 205.783 167.243 207.319 168.707C208.855 170.172 209.965 179.469 209.965 179.469L196.389 190.963C196.389 190.963 195.196 210.086 194.935 210.826C194.676 211.565 199.897 228.099 199.897 228.099Z" fill="white"/>
<path opacity="0.1" d="M183.637 148.78L184.863 152.629L178.411 159.626C178.555 152.428 178.718 145.631 178.718 145.631L176.48 131.002C176.48 131.002 178.718 131.002 179.234 131.746C179.458 131.979 179.708 132.183 179.976 132.357L185.463 149.399L183.637 148.78Z" fill="black"/>
<path d="M183.124 147.676L184.353 151.524L177.901 158.52C178.044 151.318 178.207 144.528 178.207 144.528L175.966 129.897C175.966 129.897 178.207 129.897 178.718 130.642C178.946 130.873 179.194 131.079 179.461 131.257L184.952 148.295L183.124 147.676Z" fill="white"/>
<path opacity="0.1" d="M183.123 109.595C183.126 111.396 182.863 113.186 182.343 114.898C182.166 114.93 181.986 114.879 181.842 114.763C181.721 110.265 179.664 106.042 177.136 102.448C176.424 101.363 175.564 100.403 174.582 99.5999C173.59 98.7973 172.356 98.4209 171.12 98.5442C169.728 98.7501 168.497 99.7689 167.091 99.8994C165.235 100.064 163.573 98.6796 161.73 98.6091C160.215 98.6251 158.779 99.3428 157.789 100.579C156.821 101.812 156.102 103.249 155.677 104.797C154.947 107.147 154.55 109.6 154.5 112.075C154.476 113.473 154.35 115.227 153.143 115.738C153.327 113.658 152.692 111.59 151.393 110.036L151.365 110.005C151.365 109.865 151.365 109.734 151.365 109.595C151.156 96.4313 164.26 87.9603 174.952 94.3472C180.084 97.4133 183.228 103.276 183.128 109.595H183.123Z" fill="black"/>
<path d="M173.821 82.4417C171.409 81.2194 168.665 80.9879 166.107 81.7913C164.821 82.2006 163.61 82.8654 162.306 83.2002C159.52 83.9259 156.272 83.1417 153.881 84.895C152.554 85.8946 151.754 87.4741 151.012 89.008L149.156 92.8165C148.144 94.9007 147.123 97.02 146.7 99.314C146.278 101.609 146.533 104.177 147.884 106.022C148.868 107.367 150.321 108.212 151.389 109.476C152.681 111.031 153.314 113.095 153.134 115.174C154.346 114.673 154.46 112.914 154.49 111.515C154.541 109.039 154.937 106.586 155.669 104.238C156.092 102.689 156.811 101.251 157.78 100.02C158.771 98.7845 160.206 98.0661 161.72 98.05C163.577 98.1197 165.245 99.499 167.082 99.3348C168.474 99.2098 169.708 98.1854 171.111 97.9852C172.346 97.8586 173.582 98.2351 174.573 99.04C175.555 99.8418 176.414 100.804 177.121 101.888C179.657 105.482 181.712 109.696 181.833 114.204C182.357 114.618 183.114 114.078 183.374 113.439C183.634 112.799 183.643 112.049 183.973 111.44C184.353 110.735 185.082 110.36 185.651 109.831C187.101 108.486 187.463 106.223 187.407 104.167C187.351 102.113 186.979 100.029 187.342 98.01C187.561 96.7701 188.053 95.6111 188.321 94.3856C188.591 93.1626 188.623 91.7873 187.988 90.7324C187.059 89.1834 185.105 88.879 183.401 88.734C181.465 88.553 179.734 88.7837 178.5 87.0296C177.921 86.1125 177.268 85.2538 176.551 84.4601C176.304 84.2006 173.821 82.5506 173.821 82.4417Z" fill="#512E4E"/>
<path opacity="0.1" d="M123.373 187.84L118.521 178.184L116.985 193.084C116.985 193.084 117.84 199.699 117.668 200.714C117.496 201.729 121.168 210.826 121.168 210.826C121.168 210.826 133.297 234.087 138.249 235.285L154.981 222.411L150.544 216.344C150.544 216.344 149.008 215.699 148.622 216.344C148.622 216.344 140.384 201.079 139.529 199.975C138.676 198.87 138.843 196.667 138.843 196.667C138.843 196.667 137.562 195.196 137.989 193.816C138.415 192.437 135.515 187.655 135.515 187.655L138.16 184.991L123.373 187.84Z" fill="black"/>
<path d="M118.777 177.083L117.496 178.184L115.96 193.084C115.96 193.084 116.814 199.7 116.643 200.714C116.471 201.729 120.146 210.826 120.146 210.826C120.146 210.826 132.271 234.087 137.222 235.285L153.96 222.411L149.518 216.344C149.518 216.344 147.982 215.699 147.597 216.344C147.597 216.344 139.357 201.079 138.504 199.975C137.651 198.871 137.821 196.667 137.821 196.667C137.821 196.667 136.539 195.196 136.967 193.816C137.395 192.437 134.49 187.655 134.49 187.655L137.134 184.991L118.777 177.083Z" fill="white"/>
<path opacity="0.1" d="M198.274 235.451C199.202 236.665 198.616 242.118 198.616 242.118L196.054 246.686C196.054 246.686 196.208 249.636 196.216 253.609L191.909 255.058C190.23 255.622 188.535 254.236 188.591 252.344L189.333 226.549L199.383 230.686C198.528 231.327 199.466 232.897 199.466 232.897C199.466 232.897 197.335 234.236 198.274 235.451Z" fill="black"/>
<path d="M198.788 234.895C199.716 236.11 199.132 241.569 199.132 241.569L196.57 246.136C196.57 246.136 196.723 249.08 196.737 253.059L192.351 254.533C190.707 255.082 189.049 253.726 189.101 251.874L189.848 225.999L199.903 230.138C199.044 230.777 199.981 232.342 199.981 232.342C199.981 232.342 197.861 233.688 198.788 234.895Z" fill="white"/>
<path d="M202.116 222.601C202.116 222.601 201.433 227.294 199.726 227.569C198.018 227.843 197.253 235.161 195.548 234.901C193.845 234.642 194.973 228.099 195.033 226.829C195.094 225.559 193.177 220.301 194.611 219.108C196.045 217.913 200.584 219.108 200.584 219.108L202.116 222.601Z" fill="#CF6F80"/>
<path opacity="0.1" d="M205.751 186.46L208.972 179.462C208.972 179.462 210.253 184.796 210.253 187.644C210.253 190.493 212.044 190.773 212.044 190.773C212.044 190.773 214.007 193.272 212.972 195.092C211.938 196.91 211.52 201.439 211.52 201.439C211.52 201.439 211.859 210.082 210.323 211.277C208.786 212.47 208.465 215.323 208.465 215.323C208.465 215.323 205.644 220.746 205.732 222.036C205.82 223.326 201.805 232.057 201.805 232.057C201.805 232.057 203.768 221.206 192.328 216.518C192.328 216.518 192.239 212.835 193.093 211.825C193.947 210.814 195.278 210.356 194.443 205.253C193.608 200.15 194.202 194.052 194.202 192.827C194.202 191.603 196.765 183.965 196.765 183.965L205.751 186.46Z" fill="black"/>
<path d="M207.144 178.463L209.956 179.462C209.956 179.462 211.241 184.796 211.241 187.644C211.241 190.493 213.033 190.773 213.033 190.773C213.033 190.773 214.996 193.272 213.962 195.092C212.927 196.91 212.513 201.439 212.513 201.439C212.513 201.439 212.853 210.082 211.315 211.277C209.779 212.47 209.436 215.323 209.436 215.323C209.436 215.323 206.618 220.746 206.707 222.036C206.796 223.326 202.776 232.057 202.776 232.057C202.776 232.057 204.743 221.206 193.297 216.518C193.297 216.518 193.213 212.835 194.068 211.825C194.921 210.814 196.254 210.356 195.419 205.253C194.583 200.15 195.177 194.052 195.177 192.827C195.177 191.603 197.738 183.965 197.738 183.965L207.144 178.463Z" fill="white"/>
<path opacity="0.1" d="M145.016 359.827C145.016 359.827 149.5 356.793 152.443 358.997C155.385 361.2 145.016 359.827 145.016 359.827Z" fill="black"/>
<path opacity="0.1" d="M179.855 350.446C179.855 350.446 183.824 349.895 187.157 353.759C190.489 357.622 179.855 350.446 179.855 350.446Z" fill="black"/>
<g opacity="0.1">
<path d="M185.662 108.736C185.091 109.266 184.358 109.645 183.977 110.35C183.652 110.955 183.643 111.7 183.383 112.349C183.123 112.999 182.366 113.529 181.842 113.119C181.721 108.621 179.66 104.397 177.131 100.799C176.423 99.7129 175.564 98.7518 174.583 97.9501C173.589 97.1458 172.353 96.7697 171.115 96.8955C169.723 97.1004 168.497 98.12 167.091 98.2449C165.234 98.4149 163.568 97.0304 161.725 96.9604C160.977 96.9685 160.238 97.1488 159.559 97.4893C158.88 97.8298 158.277 98.3226 157.789 98.9347C156.82 100.165 156.101 101.6 155.677 103.148C154.948 105.496 154.551 107.95 154.498 110.425C154.471 111.82 154.35 113.559 153.152 114.079C153.18 114.448 153.18 114.819 153.152 115.188C154.359 114.688 154.48 112.929 154.508 111.53C154.56 109.054 154.957 106.601 155.687 104.253C156.11 102.703 156.83 101.267 157.799 100.034C158.287 99.4238 158.891 98.9324 159.57 98.5929C160.248 98.2533 160.986 98.0734 161.735 98.065C163.591 98.135 165.262 99.5144 167.1 99.3495C168.493 99.2246 169.727 98.2 171.125 98C172.362 97.8743 173.598 98.2504 174.592 99.0546C175.573 99.8564 176.433 100.817 177.14 101.903C179.67 105.497 181.731 109.71 181.851 114.219C182.376 114.633 183.132 114.094 183.392 113.454C183.652 112.814 183.661 112.064 183.986 111.455C184.367 110.75 185.1 110.375 185.671 109.845C187.119 108.501 187.481 106.237 187.426 104.183C187.426 104.118 187.426 104.053 187.426 103.993C187.338 105.772 186.897 107.586 185.662 108.736Z" fill="black"/>
<path d="M151.398 108.381C150.33 107.116 148.873 106.272 147.894 104.932C147.069 103.747 146.598 102.319 146.543 100.839C146.397 102.689 146.876 104.533 147.894 106.032C148.873 107.376 150.33 108.221 151.398 109.485C152.423 110.722 153.038 112.29 153.148 113.944C153.219 112.937 153.101 111.926 152.8 110.97C152.499 110.014 152.022 109.134 151.398 108.381Z" fill="black"/>
<path d="M188.331 93.2919C188.057 94.5164 187.57 95.681 187.347 96.9155C187.215 97.7404 187.167 98.5783 187.203 99.4145C187.218 98.9382 187.267 98.4638 187.347 97.9951C187.57 96.7555 188.057 95.596 188.331 94.3715C188.49 93.6961 188.542 92.9964 188.484 92.3023C188.455 92.6357 188.404 92.9664 188.331 93.2919Z" fill="black"/>
</g>
<path opacity="0.1" d="M61.3841 380.147C86.3622 380.147 106.611 376.645 106.611 372.326C106.611 368.006 86.3622 364.504 61.3841 364.504C36.4059 364.504 16.1572 368.006 16.1572 372.326C16.1572 376.645 36.4059 380.147 61.3841 380.147Z" fill="#5EA8FF"/>
<path d="M62.8417 222.486H59.9312V293.044H62.8417V222.486Z" fill="#535461"/>
<path d="M81.13 292.828L80.948 296.007L80.6882 300.505L80.5807 302.374L80.3266 306.872L80.2151 308.742L79.9554 313.24L77.0217 364.255C76.7571 368.81 73.2494 372.36 69.0105 372.362H53.7576C49.5195 372.36 46.0134 368.809 45.7512 364.255L42.832 313.205L42.5714 308.707L42.4656 306.837L42.2042 302.339L42.0992 300.47L41.8386 295.971L41.6542 292.794C41.5163 290.211 43.4277 288.037 45.8306 288.04H77.0257C79.4206 288.062 81.3007 290.256 81.13 292.828Z" fill="#3F3D56"/>
<path d="M80.948 296.007L80.6882 300.49H42.0807L41.8201 296.007H80.948Z" fill="#9D9CB5"/>
<path d="M80.5807 302.36L80.3266 306.847H42.4471L42.1866 302.36H80.5807Z" fill="#9D9CB5"/>
<path d="M80.2151 308.723L79.9594 313.205H42.8135L42.5546 308.723H80.2151Z" fill="#9D9CB5"/>
<path d="M37.3776 248.931C54.3253 262.135 61.3977 282.787 61.3977 282.787C61.3977 282.787 40.9751 282.033 24.0249 268.827C7.07318 255.624 0.0136261 234.975 0.0136261 234.975C0.0136261 234.975 20.4274 235.725 37.3776 248.931Z" fill="#5EA8FF"/>
<path d="M0 234.975C0 234.975 21.2027 247.645 28.0025 258.137C34.8023 268.627 61.3977 282.787 61.3977 282.787" stroke="#535461" stroke-width="2" stroke-miterlimit="10"/>
<path d="M48.3185 222.331C57.542 229.513 61.3977 240.754 61.3977 240.754C61.3977 240.754 50.282 240.344 41.0537 233.161C31.8261 225.98 27.9785 214.734 27.9785 214.734C27.9785 214.734 39.0909 215.144 48.3185 222.331Z" fill="#5EA8FF"/>
<path d="M27.9785 214.734C27.9785 214.734 39.5175 221.631 43.2176 227.338C46.917 233.047 61.3977 240.754 61.3977 240.754" stroke="#535461" stroke-width="2" stroke-miterlimit="10"/>
<path d="M74.7896 240.184C64.1919 252.723 61.9509 269.113 61.9509 269.113C61.9509 269.113 76.8918 265.164 87.4792 252.618C98.0665 240.074 100.319 223.69 100.319 223.69C100.319 223.69 85.3857 227.644 74.7896 240.184Z" fill="#5EA8FF"/>
<path d="M100.327 223.695C100.327 223.695 86.5235 236.55 83.0133 245.406C79.5048 254.264 61.9509 269.113 61.9509 269.113" stroke="#535461" stroke-width="2" stroke-miterlimit="10"/>
<path d="M281.661 18.6417H281.403C271.073 18.6417 261.94 24.5272 256.684 33.212C251.43 24.5272 242.295 18.6417 231.967 18.6417H231.707C215.573 18.8075 202.574 32.9317 202.566 50.3038C202.566 60.6698 206.783 75.3771 215.003 87.4797C230.666 110.539 256.684 130.714 256.684 130.714C256.684 130.714 282.703 110.544 298.362 87.4797C306.588 75.3771 310.801 60.6698 310.801 50.3038C310.791 32.9333 297.793 18.8091 281.661 18.6417ZM277.948 89.2538C275.54 89.2442 273.385 87.6415 272.524 85.2202H266.348C265.515 85.2154 264.776 84.6403 264.51 83.7888L262.615 77.6359L256.613 100.219C256.371 101.111 255.613 101.728 254.749 101.73H254.628C253.725 101.682 252.974 100.961 252.828 99.9988L246.643 59.9394L242.122 83.6447C241.909 84.5698 241.135 85.221 240.25 85.2202H231.552C230.063 85.2899 229.066 83.5966 229.754 82.1749C230.101 81.4589 230.802 81.0231 231.552 81.0584H238.727L245.131 49.1856C245.479 47.6205 247.271 47.0503 248.356 48.158C248.668 48.4776 248.872 48.8997 248.937 49.3578L255.255 90.223L260.634 70.0171C260.864 69.144 261.601 68.5369 262.444 68.5273H262.482C263.315 68.5281 264.056 69.1048 264.316 69.9586L267.747 81.0688H272.448C273.844 76.5009 279.309 75.2738 282.284 78.8589C285.259 82.4464 283.513 88.1557 279.142 89.1369C278.753 89.225 278.355 89.2682 277.958 89.2682L277.948 89.2538Z" fill="#5EA8FF"/>
</g>
<defs>
<linearGradient id="paint0_linear_11_284" x1="165.169" y1="387.285" x2="165.169" y2="79.7372" gradientUnits="userSpaceOnUse">
<stop stop-color="#808080" stop-opacity="0.25"/>
<stop offset="0.54" stop-color="#808080" stop-opacity="0.12"/>
<stop offset="1" stop-color="#808080" stop-opacity="0.1"/>
</linearGradient>
<clipPath id="clip0_11_284">
<rect width="350" height="391" fill="white"/>
</clipPath>
</defs>
</svg>
